<svg width="176" height="30" viewBox="0 0 176 30" fill="none" xmlns="http://www.w3.org/2000/svg">
<path d="M9.49511 3.40979V2.90979H8.99511H1H0.5V3.40979V28.4825V28.9825H1H19.7405H20.2405V28.4825V21.8625V21.3625H19.7405H9.49511V3.40979ZM30.1365 3.40979V2.90979H29.6365H21.7373H21.2373V3.40979V28.4825V28.9825H21.7373H29.6365H30.1365V28.4825V3.40979ZM40.6948 3.40979V2.90979H40.1948H32.1997H31.6997V3.40979V28.4825V28.9825H32.1997H40.1948H40.6948V28.4825V20.6995H41.6776V24.4209V24.9209H42.1776H44.8116V28.4825V28.9825H45.3116H53.3068H53.8068V28.4825V3.40979V2.90979H53.3068H45.3116H44.8116V3.40979V11.1927H43.8608V7.47131V6.97131H43.3608H40.6948V3.40979ZM64.399 3.40979V2.90979H63.899H55.9039H55.4039V3.40979V28.4825V28.9825H55.9039H63.899H64.399V28.4825V22.4584H64.5823V25.4123V25.9123H65.0823H66.9489V28.4825V28.9825H67.4489H75.444H75.944V28.4825V19.6878V19.1878H75.444H73.2896V17.3213V16.8213H72.7896H70.8271V15.071H72.7896H73.2896V14.571V12.7044H75.444H75.944V12.2044V3.40979V2.90979H75.444H67.4489H66.9489V3.40979V5.97991H65.0823H64.5823V6.47991V9.4338H64.399V3.40979Z" fill="#0D3B66" stroke="#FFC914"/>
<path d="M102.754 11.4571H108.414C108.446 19.4842 105.6 18.9086 105.6 21.435C105.6 23.9615 105.696 27.2235 108.51 27.2874C111.293 27.2874 111.964 23.6736 111.964 23.6417V11.4251H116.793V28.9504H111.836V26.392C111.836 26.392 111.037 28.9504 106.879 28.9504C102.786 28.9504 102.754 23.5457 102.754 23.2899V11.4571Z" fill="#A8FF8A"/>
<path d="M123.132 15.3587C123.644 14.3354 125.563 11.1693 129.816 11.1693C130.456 11.1693 131.095 11.2333 131.831 11.3932L128.921 20.2198C128.921 20.2198 128.601 15.5186 126.202 15.5186C125.946 15.5186 125.659 15.5826 125.339 15.7105C125.339 15.7105 123.804 16.2862 123.132 18.9725V28.8545H118.143V11.1693H123.132V15.3587Z" fill="#A8FF8A"/>
<path d="M144.895 21.1792C147.485 22.0107 147.677 25.3366 147.677 27.7032C147.677 28.1509 147.677 28.5666 147.677 28.9184H142.496C142.496 28.9184 142.016 23.1939 138.147 22.6183V28.7905H133.158V1.06348H138.147V16.0623C139.298 14.1115 141.952 11.1693 147.357 11.1693V18.6207C147.357 18.6207 145.982 15.9344 143.424 15.9344C142.752 15.9344 141.984 16.1263 141.121 16.606C141.121 16.606 138.339 18.5568 138.339 20.4116C138.339 21.3391 138.85 21.6269 139.394 21.6269C140.321 21.6269 141.761 20.9553 143.392 20.9553C143.871 20.9553 144.383 21.0193 144.895 21.1792Z" fill="#A8FF8A"/>
<path d="M161.607 21.499C161.607 26.0082 159.688 28.8225 156.107 28.8225C152.525 28.8225 149.998 27.5433 148.559 23.3219C148.207 22.3305 148.047 21.1152 148.047 19.868C148.047 15.4867 149.966 10.8495 153.9 10.8495C158.409 10.8495 160.104 14.4953 160.104 14.4953C160.104 14.4953 160.456 15.4227 160.456 16.7019C160.456 18.9086 159.401 22.1386 153.804 23.2579C154.827 24.4412 156.266 25.0808 157.322 25.0808C160.104 25.0808 161.607 21.499 161.607 21.499ZM151.917 13.1521C151.405 13.5998 151.15 14.6232 151.15 15.8704C151.15 17.7892 151.725 20.2517 152.972 22.1386C154.476 21.8508 156.778 20.8913 156.778 18.0771C156.778 15.1988 154.124 12.8323 152.781 12.8323C152.461 12.8323 152.173 12.9282 151.917 13.1521Z" fill="#A8FF8A"/>
<path d="M167.301 15.3587C167.813 14.3354 169.732 11.1693 173.985 11.1693C174.625 11.1693 175.265 11.2333 176 11.3932L173.09 20.2198C173.09 20.2198 172.77 15.5186 170.372 15.5186C170.116 15.5186 169.828 15.5826 169.508 15.7105C169.508 15.7105 167.973 16.2862 167.301 18.9725V28.8545H162.312V11.1693H167.301V15.3587Z" fill="#A8FF8A"/>
<path d="M102.754 11.4571H108.414C108.446 19.4842 105.6 18.9086 105.6 21.435C105.6 23.9615 105.696 27.2235 108.51 27.2874C111.293 27.2874 111.964 23.6736 111.964 23.6417V11.4251H116.793V28.9504H111.836V26.392C111.836 26.392 111.037 28.9504 106.879 28.9504C102.786 28.9504 102.754 23.5457 102.754 23.2899V11.4571Z" fill="#57CF55"/>
<path d="M123.132 15.3587C123.644 14.3354 125.563 11.1693 129.816 11.1693C130.456 11.1693 131.095 11.2333 131.831 11.3932L128.921 20.2198C128.921 20.2198 128.601 15.5186 126.202 15.5186C125.946 15.5186 125.659 15.5826 125.339 15.7105C125.339 15.7105 123.804 16.2862 123.132 18.9725V28.8545H118.143V11.1693H123.132V15.3587Z" fill="#57CF55"/>
<path d="M144.895 21.1792C147.485 22.0107 147.677 25.3366 147.677 27.7032C147.677 28.1509 147.677 28.5666 147.677 28.9184H142.496C142.496 28.9184 142.016 23.1939 138.147 22.6183V28.7905H133.158V1.06348H138.147V16.0623C139.298 14.1115 141.952 11.1693 147.357 11.1693V18.6207C147.357 18.6207 145.982 15.9344 143.424 15.9344C142.752 15.9344 141.984 16.1263 141.121 16.606C141.121 16.606 138.339 18.5568 138.339 20.4116C138.339 21.3391 138.85 21.6269 139.394 21.6269C140.321 21.6269 141.761 20.9553 143.392 20.9553C143.871 20.9553 144.383 21.0193 144.895 21.1792Z" fill="#57CF55"/>
<path d="M161.607 21.499C161.607 26.0082 159.688 28.8225 156.107 28.8225C152.525 28.8225 149.998 27.5433 148.559 23.3219C148.207 22.3305 148.047 21.1152 148.047 19.868C148.047 15.4867 149.966 10.8495 153.9 10.8495C158.409 10.8495 160.104 14.4953 160.104 14.4953C160.104 14.4953 160.456 15.4227 160.456 16.7019C160.456 18.9086 159.401 22.1386 153.804 23.2579C154.827 24.4412 156.266 25.0808 157.322 25.0808C160.104 25.0808 161.607 21.499 161.607 21.499ZM151.917 13.1521C151.405 13.5998 151.15 14.6232 151.15 15.8704C151.15 17.7892 151.725 20.2517 152.972 22.1386C154.476 21.8508 156.778 20.8913 156.778 18.0771C156.778 15.1988 154.124 12.8323 152.781 12.8323C152.461 12.8323 152.173 12.9282 151.917 13.1521Z" fill="#57CF55"/>
<path d="M102.754 11.4571H108.414C108.446 19.4842 105.6 18.9086 105.6 21.435C105.6 23.9615 105.696 27.2235 108.51 27.2874C111.293 27.2874 111.964 23.6736 111.964 23.6417V11.4251H116.793V28.9504H111.836V26.392C111.836 26.392 111.037 28.9504 106.879 28.9504C102.786 28.9504 102.754 23.5457 102.754 23.2899V11.4571Z" fill="#A8FF8A"/>
<path d="M123.132 15.3587C123.644 14.3354 125.563 11.1693 129.816 11.1693C130.456 11.1693 131.095 11.2333 131.831 11.3932L128.921 20.2198C128.921 20.2198 128.601 15.5186 126.202 15.5186C125.946 15.5186 125.659 15.5826 125.339 15.7105C125.339 15.7105 123.804 16.2862 123.132 18.9725V28.8545H118.143V11.1693H123.132V15.3587Z" fill="#A8FF8A"/>
<path d="M144.895 21.1792C147.485 22.0107 147.677 25.3366 147.677 27.7032C147.677 28.1509 147.677 28.5666 147.677 28.9184H142.496C142.496 28.9184 142.016 23.1939 138.147 22.6183V28.7905H133.158V1.06348H138.147V16.0623C139.298 14.1115 141.952 11.1693 147.357 11.1693V18.6207C147.357 18.6207 145.982 15.9344 143.424 15.9344C142.752 15.9344 141.984 16.1263 141.121 16.606C141.121 16.606 138.339 18.5568 138.339 20.4116C138.339 21.3391 138.85 21.6269 139.394 21.6269C140.321 21.6269 141.761 20.9553 143.392 20.9553C143.871 20.9553 144.383 21.0193 144.895 21.1792Z" fill="#A8FF8A"/>
<path d="M102.754 11.4571H108.414C108.446 19.4842 105.6 18.9086 105.6 21.435C105.6 23.9615 105.696 27.2235 108.51 27.2874C111.293 27.2874 111.964 23.6736 111.964 23.6417V11.4251H116.793V28.9504H111.836V26.392C111.836 26.392 111.037 28.9504 106.879 28.9504C102.786 28.9504 102.754 23.5457 102.754 23.2899V11.4571Z" fill="#57CF55"/>
<path d="M123.132 15.3587C123.644 14.3354 125.563 11.1693 129.816 11.1693C130.456 11.1693 131.095 11.2333 131.831 11.3932L128.921 20.2198C128.921 20.2198 128.601 15.5186 126.202 15.5186C125.946 15.5186 125.659 15.5826 125.339 15.7105C125.339 15.7105 123.804 16.2862 123.132 18.9725V28.8545H118.143V11.1693H123.132V15.3587Z" fill="#57CF55"/>
<path d="M102.754 11.4571H108.414C108.446 19.4842 105.6 18.9086 105.6 21.435C105.6 23.9615 105.696 27.2235 108.51 27.2874C111.293 27.2874 111.964 23.6736 111.964 23.6417V11.4251H116.793V28.9504H111.836V26.392C111.836 26.392 111.037 28.9504 106.879 28.9504C102.786 28.9504 102.754 23.5457 102.754 23.2899V11.4571Z" fill="#A8FF8A"/>
<path d="M93.4348 28.2333C93.4929 28.402 93.9035 28.8269 94.0216 28.7862C94.1397 28.7456 94.2016 28.158 94.1435 27.9893C94.0473 27.7097 93.733 27.5644 93.6149 27.605C93.4968 27.6457 93.3386 27.9537 93.4348 28.2333Z" fill="#429540"/>
<path d="M81.7886 19.9092C81.6461 20.0166 81.0682 20.1393 80.993 20.0395C80.9178 19.9397 81.195 19.418 81.3376 19.3106C81.5737 19.1327 81.9155 19.1879 81.9907 19.2877C82.0659 19.3875 82.0248 19.7313 81.7886 19.9092Z" fill="#429540"/>
<path d="M83.6238 28.2026C83.5627 28.3703 83.1448 28.7879 83.0274 28.7452C82.9101 28.7025 82.8584 28.1139 82.9194 27.9462C83.0206 27.6684 83.3373 27.5286 83.4547 27.5713C83.5721 27.614 83.7249 27.9247 83.6238 28.2026Z" fill="#429540"/>
<path d="M81.7886 13.1632C81.6461 13.2706 81.0682 13.3933 80.993 13.2935C80.9178 13.1938 81.195 12.672 81.3376 12.5646C81.5737 12.3867 81.9155 12.442 81.9907 12.5417C82.0659 12.6415 82.0248 12.9853 81.7886 13.1632Z" fill="#429540"/>
<path d="M81.7886 6.16764C81.6461 6.27504 81.0682 6.39771 80.993 6.29794C80.9178 6.19817 81.195 5.67643 81.3376 5.56903C81.5737 5.39108 81.9155 5.44636 81.9907 5.54613C82.0659 5.6459 82.0248 5.98969 81.7886 6.16764Z" fill="#429540"/>
<ellipse cx="85.1405" cy="4.12248" rx="4.12248" ry="4.12248" fill="#57CF55"/>
<ellipse cx="85.1405" cy="10.8682" rx="4.12248" ry="4.12248" fill="#A8FF8A"/>
<ellipse cx="85.1405" cy="17.6142" rx="4.12248" ry="4.12248" fill="#57CF55"/>
<ellipse cx="85.1405" cy="24.3604" rx="4.12248" ry="4.12248" fill="#A8FF8A"/>
<ellipse cx="91.6371" cy="24.61" rx="4.12248" ry="4.12248" fill="#57CF55"/>
<path d="M96.8296 17.2756C97.3683 17.8669 97.4526 18.1332 97.5369 18.3995C97.6213 18.6658 97.6469 19.3023 97.6078 19.5491" stroke="#57CF55"/>
<path d="M102.259 18.1356C101.564 18.5315 101.401 18.7587 101.239 18.9859C101.076 19.2131 100.855 19.8105 100.816 20.0573" stroke="#57CF55"/>
<ellipse cx="0.749542" cy="0.749542" rx="0.749542" ry="0.749542" transform="matrix(-0.987688 -0.156434 -0.156435 0.987688 103.544 17.2012)" fill="#429741" fill-opacity="0.978351"/>
<circle cx="98.4366" cy="23.0956" r="4.12248" transform="rotate(9 98.4366 23.0956)" fill="#A8FF8A"/>
<ellipse cx="96.7425" cy="21.8153" rx="0.499694" ry="1.12431" transform="rotate(9 96.7425 21.8153)" fill="black"/>
<ellipse cx="100.444" cy="22.4018" rx="0.499694" ry="1.12431" transform="rotate(9 100.444 22.4018)" fill="black"/>
<path d="M100.072 24.7458C99.8957 25.8563 98.6677 26.0413 97.9863 25.9333C97.3049 25.8254 96.3175 25.2896 96.4934 24.1791C96.5716 23.6856 96.0707 25.2505 98.0449 25.5632C100.019 25.8759 100.158 24.2007 100.072 24.7458Z" fill="black"/>
<ellipse cx="96.5171" cy="16.8472" rx="0.749542" ry="0.749542" transform="rotate(9 96.5171 16.8472)" fill="#429741" fill-opacity="0.978351"/>
<path d="M90.2038 28.2333C90.1457 28.402 89.7352 28.8269 89.6171 28.7862C89.499 28.7456 89.437 28.158 89.4951 27.9893C89.5914 27.7097 89.9057 27.5644 90.0238 27.605C90.1419 27.6457 90.3001 27.9537 90.2038 28.2333Z" fill="#429540"/>
<path d="M81.6102 16.0116C81.4622 15.9118 81.1581 15.4053 81.2279 15.3017C81.2978 15.1981 81.8813 15.2904 82.0293 15.3902C82.2744 15.5555 82.3334 15.8967 82.2636 16.0003C82.1937 16.1038 81.8553 16.1769 81.6102 16.0116Z" fill="#429540"/>
<path d="M81.0706 24.2735C80.8923 24.2673 80.3659 23.9989 80.3703 23.874C80.3746 23.7492 80.9184 23.5182 81.0968 23.5244C81.3923 23.5347 81.6231 23.7928 81.6188 23.9176C81.6144 24.0425 81.3661 24.2838 81.0706 24.2735Z" fill="#429540"/>
<path d="M81.6102 9.26537C81.4622 9.16558 81.1581 8.65906 81.2279 8.55549C81.2978 8.45193 81.8813 8.54418 82.0293 8.64397C82.2744 8.80932 82.3334 9.15049 82.2636 9.25406C82.1937 9.35762 81.8553 9.43072 81.6102 9.26537Z" fill="#429540"/>
<path d="M81.6102 2.26977C81.4622 2.16997 81.1581 1.66346 81.2279 1.55989C81.2978 1.45632 81.8813 1.54857 82.0293 1.64837C82.2744 1.81371 82.3334 2.15489 82.2636 2.25845C82.1937 2.36202 81.8553 2.43511 81.6102 2.26977Z" fill="#429540"/>
<ellipse cx="96.8136" cy="22.3957" rx="0.249847" ry="0.374771" transform="rotate(9 96.8136 22.3957)" fill="white"/>
<ellipse cx="100.56" cy="22.8953" rx="0.249847" ry="0.374771" transform="rotate(9 100.56 22.8953)" fill="white"/>
</svg>
