<svg width="51" height="51" viewBox="0 0 51 51" fill="none" xmlns="http://www.w3.org/2000/svg">
<path d="M50.3064 44.1003L40.3746 34.1685C39.9264 33.7202 39.3187 33.4712 38.6811 33.4712H37.0574C39.8068 29.9547 41.4405 25.5318 41.4405 20.7203C41.4405 9.27431 32.1662 0 20.7203 0C9.27431 0 0 9.27431 0 20.7203C0 32.1662 9.27431 41.4405 20.7203 41.4405C25.5317 41.4405 29.9547 39.8068 33.4712 37.0574V38.6812C33.4712 39.3187 33.7202 39.9264 34.1685 40.3746L44.1003 50.3064C45.0367 51.2428 46.5509 51.2428 47.4773 50.3064L50.2965 47.4873C51.2328 46.5509 51.2328 45.0367 50.3064 44.1003ZM20.7203 33.4712C13.6774 33.4712 7.96933 27.7731 7.96933 20.7203C7.96933 13.6774 13.6674 7.96933 20.7203 7.96933C27.7632 7.96933 33.4712 13.6674 33.4712 20.7203C33.4712 27.7632 27.7731 33.4712 20.7203 33.4712Z" fill="#0D3B66"/>
</svg>
